<mxfile host="Electron" modified="2024-06-12T11:13:06.951Z" agent="Mozilla/5.0 (Windows NT 10.0; Win64; x64) AppleWebKit/537.36 (KHTML, like Gecko) draw.io/24.5.1 Chrome/124.0.6367.207 Electron/30.0.6 Safari/537.36" etag="7u14Bk6tPDkrrTMqQGiT" version="24.5.1" type="device">
  <diagram name="Page-1" id="FgQ5otF-t8O64kcgM_Qa">
    <mxGraphModel dx="1235" dy="740" grid="1" gridSize="10" guides="1" tooltips="1" connect="1" arrows="1" fold="1" page="1" pageScale="1" pageWidth="850" pageHeight="1100" math="0" shadow="0">
      <root>
        <mxCell id="0" />
        <mxCell id="1" parent="0" />
        <mxCell id="q-Wm0M6twYgIo_zcE0Oj-5" value="admin" style="rounded=0;whiteSpace=wrap;html=1;" vertex="1" parent="1">
          <mxGeometry x="140" y="465.4" width="120" height="60" as="geometry" />
        </mxCell>
        <mxCell id="q-Wm0M6twYgIo_zcE0Oj-6" value="manager" style="rounded=0;whiteSpace=wrap;html=1;" vertex="1" parent="1">
          <mxGeometry x="130" y="155" width="120" height="60" as="geometry" />
        </mxCell>
        <mxCell id="q-Wm0M6twYgIo_zcE0Oj-7" value="tokens" style="rounded=0;whiteSpace=wrap;html=1;" vertex="1" parent="1">
          <mxGeometry x="370" y="295" width="70" height="40" as="geometry" />
        </mxCell>
        <mxCell id="q-Wm0M6twYgIo_zcE0Oj-8" value="assistance" style="rounded=0;whiteSpace=wrap;html=1;" vertex="1" parent="1">
          <mxGeometry x="620" y="455.4" width="120" height="60" as="geometry" />
        </mxCell>
        <mxCell id="q-Wm0M6twYgIo_zcE0Oj-10" value="manages" style="rhombus;whiteSpace=wrap;html=1;" vertex="1" parent="1">
          <mxGeometry x="380" y="465.4" width="120" height="65.4" as="geometry" />
        </mxCell>
        <mxCell id="q-Wm0M6twYgIo_zcE0Oj-16" value="" style="endArrow=none;html=1;rounded=0;exitX=1;exitY=0.5;exitDx=0;exitDy=0;entryX=0;entryY=0.5;entryDx=0;entryDy=0;" edge="1" parent="1" source="q-Wm0M6twYgIo_zcE0Oj-5" target="q-Wm0M6twYgIo_zcE0Oj-10">
          <mxGeometry width="50" height="50" relative="1" as="geometry">
            <mxPoint x="400" y="310.4" as="sourcePoint" />
            <mxPoint x="450" y="260.4" as="targetPoint" />
            <Array as="points">
              <mxPoint x="260" y="500" />
            </Array>
          </mxGeometry>
        </mxCell>
        <mxCell id="q-Wm0M6twYgIo_zcE0Oj-17" value="" style="endArrow=none;html=1;rounded=0;exitX=1;exitY=0.5;exitDx=0;exitDy=0;entryX=-0.014;entryY=0.636;entryDx=0;entryDy=0;entryPerimeter=0;" edge="1" parent="1" source="q-Wm0M6twYgIo_zcE0Oj-119" target="q-Wm0M6twYgIo_zcE0Oj-8">
          <mxGeometry width="50" height="50" relative="1" as="geometry">
            <mxPoint x="370" y="315.4" as="sourcePoint" />
            <mxPoint x="620" y="385.4" as="targetPoint" />
            <Array as="points" />
          </mxGeometry>
        </mxCell>
        <mxCell id="q-Wm0M6twYgIo_zcE0Oj-19" value="manages" style="rhombus;whiteSpace=wrap;html=1;" vertex="1" parent="1">
          <mxGeometry x="130" y="320" width="120" height="60" as="geometry" />
        </mxCell>
        <mxCell id="q-Wm0M6twYgIo_zcE0Oj-20" value="" style="endArrow=none;html=1;rounded=0;exitX=0.5;exitY=1;exitDx=0;exitDy=0;entryX=0.416;entryY=-0.007;entryDx=0;entryDy=0;entryPerimeter=0;" edge="1" parent="1" source="q-Wm0M6twYgIo_zcE0Oj-19" target="q-Wm0M6twYgIo_zcE0Oj-5">
          <mxGeometry width="50" height="50" relative="1" as="geometry">
            <mxPoint x="430" y="365" as="sourcePoint" />
            <mxPoint x="190" y="440" as="targetPoint" />
          </mxGeometry>
        </mxCell>
        <mxCell id="q-Wm0M6twYgIo_zcE0Oj-21" value="" style="endArrow=none;html=1;rounded=0;exitX=0.5;exitY=0;exitDx=0;exitDy=0;entryX=0.5;entryY=1;entryDx=0;entryDy=0;" edge="1" parent="1" source="q-Wm0M6twYgIo_zcE0Oj-19" target="q-Wm0M6twYgIo_zcE0Oj-6">
          <mxGeometry width="50" height="50" relative="1" as="geometry">
            <mxPoint x="430" y="365" as="sourcePoint" />
            <mxPoint x="480" y="315" as="targetPoint" />
          </mxGeometry>
        </mxCell>
        <mxCell id="q-Wm0M6twYgIo_zcE0Oj-22" value="serves" style="rhombus;whiteSpace=wrap;html=1;" vertex="1" parent="1">
          <mxGeometry x="610" y="295" width="120" height="70" as="geometry" />
        </mxCell>
        <mxCell id="q-Wm0M6twYgIo_zcE0Oj-23" value="customer" style="rounded=0;whiteSpace=wrap;html=1;" vertex="1" parent="1">
          <mxGeometry x="610" y="155" width="120" height="60" as="geometry" />
        </mxCell>
        <mxCell id="q-Wm0M6twYgIo_zcE0Oj-24" value="" style="endArrow=none;html=1;rounded=0;entryX=0.5;entryY=1;entryDx=0;entryDy=0;exitX=0.5;exitY=0;exitDx=0;exitDy=0;" edge="1" parent="1" source="q-Wm0M6twYgIo_zcE0Oj-22" target="q-Wm0M6twYgIo_zcE0Oj-23">
          <mxGeometry width="50" height="50" relative="1" as="geometry">
            <mxPoint x="370" y="355" as="sourcePoint" />
            <mxPoint x="420" y="305" as="targetPoint" />
          </mxGeometry>
        </mxCell>
        <mxCell id="q-Wm0M6twYgIo_zcE0Oj-25" value="" style="endArrow=none;html=1;rounded=0;entryX=0.5;entryY=1;entryDx=0;entryDy=0;exitX=0.416;exitY=0.008;exitDx=0;exitDy=0;exitPerimeter=0;" edge="1" parent="1" source="q-Wm0M6twYgIo_zcE0Oj-8" target="q-Wm0M6twYgIo_zcE0Oj-22">
          <mxGeometry width="50" height="50" relative="1" as="geometry">
            <mxPoint x="370" y="355" as="sourcePoint" />
            <mxPoint x="420" y="305" as="targetPoint" />
          </mxGeometry>
        </mxCell>
        <mxCell id="q-Wm0M6twYgIo_zcE0Oj-27" value="approves" style="rhombus;whiteSpace=wrap;html=1;" vertex="1" parent="1">
          <mxGeometry x="270" y="215" width="100" height="50" as="geometry" />
        </mxCell>
        <mxCell id="q-Wm0M6twYgIo_zcE0Oj-28" value="" style="endArrow=none;html=1;rounded=0;exitX=1.007;exitY=0.64;exitDx=0;exitDy=0;entryX=0;entryY=0;entryDx=0;entryDy=0;exitPerimeter=0;" edge="1" parent="1" source="q-Wm0M6twYgIo_zcE0Oj-6" target="q-Wm0M6twYgIo_zcE0Oj-27">
          <mxGeometry width="50" height="50" relative="1" as="geometry">
            <mxPoint x="400" y="350" as="sourcePoint" />
            <mxPoint x="450" y="300" as="targetPoint" />
            <Array as="points" />
          </mxGeometry>
        </mxCell>
        <mxCell id="q-Wm0M6twYgIo_zcE0Oj-29" value="" style="endArrow=none;html=1;rounded=0;entryX=0.622;entryY=0.881;entryDx=0;entryDy=0;exitX=0;exitY=0;exitDx=0;exitDy=0;entryPerimeter=0;" edge="1" parent="1" source="q-Wm0M6twYgIo_zcE0Oj-7" target="q-Wm0M6twYgIo_zcE0Oj-27">
          <mxGeometry width="50" height="50" relative="1" as="geometry">
            <mxPoint x="400" y="300" as="sourcePoint" />
            <mxPoint x="450" y="300" as="targetPoint" />
          </mxGeometry>
        </mxCell>
        <mxCell id="q-Wm0M6twYgIo_zcE0Oj-30" value="buys" style="rhombus;whiteSpace=wrap;html=1;" vertex="1" parent="1">
          <mxGeometry x="280" y="380" width="80" height="50" as="geometry" />
        </mxCell>
        <mxCell id="q-Wm0M6twYgIo_zcE0Oj-31" value="" style="endArrow=none;html=1;rounded=0;entryX=0;entryY=1;entryDx=0;entryDy=0;exitX=1;exitY=0;exitDx=0;exitDy=0;" edge="1" parent="1" source="q-Wm0M6twYgIo_zcE0Oj-5" target="q-Wm0M6twYgIo_zcE0Oj-30">
          <mxGeometry width="50" height="50" relative="1" as="geometry">
            <mxPoint x="260" y="460" as="sourcePoint" />
            <mxPoint x="294" y="389.9999999999999" as="targetPoint" />
            <Array as="points" />
          </mxGeometry>
        </mxCell>
        <mxCell id="q-Wm0M6twYgIo_zcE0Oj-32" value="" style="endArrow=none;html=1;rounded=0;exitX=0.675;exitY=0.136;exitDx=0;exitDy=0;entryX=0;entryY=1;entryDx=0;entryDy=0;exitPerimeter=0;" edge="1" parent="1" source="q-Wm0M6twYgIo_zcE0Oj-30" target="q-Wm0M6twYgIo_zcE0Oj-7">
          <mxGeometry width="50" height="50" relative="1" as="geometry">
            <mxPoint x="400" y="350" as="sourcePoint" />
            <mxPoint x="450" y="300" as="targetPoint" />
            <Array as="points" />
          </mxGeometry>
        </mxCell>
        <mxCell id="q-Wm0M6twYgIo_zcE0Oj-33" value="uses" style="rhombus;whiteSpace=wrap;html=1;" vertex="1" parent="1">
          <mxGeometry x="480" y="215" width="80" height="50" as="geometry" />
        </mxCell>
        <mxCell id="q-Wm0M6twYgIo_zcE0Oj-35" value="" style="endArrow=none;html=1;rounded=0;entryX=0;entryY=0.5;entryDx=0;entryDy=0;" edge="1" parent="1" source="q-Wm0M6twYgIo_zcE0Oj-33" target="q-Wm0M6twYgIo_zcE0Oj-23">
          <mxGeometry width="50" height="50" relative="1" as="geometry">
            <mxPoint x="370" y="355" as="sourcePoint" />
            <mxPoint x="420" y="305" as="targetPoint" />
          </mxGeometry>
        </mxCell>
        <mxCell id="q-Wm0M6twYgIo_zcE0Oj-36" value="" style="endArrow=none;html=1;rounded=0;entryX=0;entryY=1;entryDx=0;entryDy=0;exitX=0.999;exitY=0.051;exitDx=0;exitDy=0;exitPerimeter=0;" edge="1" parent="1" source="q-Wm0M6twYgIo_zcE0Oj-7" target="q-Wm0M6twYgIo_zcE0Oj-33">
          <mxGeometry width="50" height="50" relative="1" as="geometry">
            <mxPoint x="440" y="295" as="sourcePoint" />
            <mxPoint x="420" y="305" as="targetPoint" />
          </mxGeometry>
        </mxCell>
        <mxCell id="q-Wm0M6twYgIo_zcE0Oj-37" value="&lt;u&gt;ID&lt;/u&gt;" style="ellipse;whiteSpace=wrap;html=1;" vertex="1" parent="1">
          <mxGeometry x="550" y="105" width="40" height="20" as="geometry" />
        </mxCell>
        <mxCell id="q-Wm0M6twYgIo_zcE0Oj-39" value="" style="endArrow=none;html=1;rounded=0;entryX=1;entryY=1;entryDx=0;entryDy=0;exitX=0;exitY=0;exitDx=0;exitDy=0;" edge="1" parent="1" source="q-Wm0M6twYgIo_zcE0Oj-23" target="q-Wm0M6twYgIo_zcE0Oj-37">
          <mxGeometry width="50" height="50" relative="1" as="geometry">
            <mxPoint x="370" y="355" as="sourcePoint" />
            <mxPoint x="420" y="305" as="targetPoint" />
          </mxGeometry>
        </mxCell>
        <mxCell id="q-Wm0M6twYgIo_zcE0Oj-40" value="name" style="ellipse;whiteSpace=wrap;html=1;" vertex="1" parent="1">
          <mxGeometry x="620" y="75" width="40" height="20" as="geometry" />
        </mxCell>
        <mxCell id="q-Wm0M6twYgIo_zcE0Oj-41" value="phone" style="ellipse;whiteSpace=wrap;html=1;" vertex="1" parent="1">
          <mxGeometry x="690" y="85" width="40" height="20" as="geometry" />
        </mxCell>
        <mxCell id="q-Wm0M6twYgIo_zcE0Oj-42" value="password" style="ellipse;whiteSpace=wrap;html=1;" vertex="1" parent="1">
          <mxGeometry x="740" y="95" width="70" height="20" as="geometry" />
        </mxCell>
        <mxCell id="q-Wm0M6twYgIo_zcE0Oj-44" value="" style="endArrow=none;html=1;rounded=0;entryX=0.5;entryY=1;entryDx=0;entryDy=0;exitX=0.25;exitY=0;exitDx=0;exitDy=0;" edge="1" parent="1" source="q-Wm0M6twYgIo_zcE0Oj-23" target="q-Wm0M6twYgIo_zcE0Oj-40">
          <mxGeometry width="50" height="50" relative="1" as="geometry">
            <mxPoint x="370" y="355" as="sourcePoint" />
            <mxPoint x="420" y="305" as="targetPoint" />
          </mxGeometry>
        </mxCell>
        <mxCell id="q-Wm0M6twYgIo_zcE0Oj-45" value="" style="endArrow=none;html=1;rounded=0;entryX=0.5;entryY=1;entryDx=0;entryDy=0;exitX=0.587;exitY=-0.027;exitDx=0;exitDy=0;exitPerimeter=0;" edge="1" parent="1" source="q-Wm0M6twYgIo_zcE0Oj-23" target="q-Wm0M6twYgIo_zcE0Oj-41">
          <mxGeometry width="50" height="50" relative="1" as="geometry">
            <mxPoint x="370" y="355" as="sourcePoint" />
            <mxPoint x="420" y="305" as="targetPoint" />
          </mxGeometry>
        </mxCell>
        <mxCell id="q-Wm0M6twYgIo_zcE0Oj-47" value="" style="endArrow=none;html=1;rounded=0;entryX=0.263;entryY=1.1;entryDx=0;entryDy=0;entryPerimeter=0;exitX=1;exitY=0;exitDx=0;exitDy=0;" edge="1" parent="1" source="q-Wm0M6twYgIo_zcE0Oj-23" target="q-Wm0M6twYgIo_zcE0Oj-42">
          <mxGeometry width="50" height="50" relative="1" as="geometry">
            <mxPoint x="370" y="355" as="sourcePoint" />
            <mxPoint x="420" y="305" as="targetPoint" />
          </mxGeometry>
        </mxCell>
        <mxCell id="q-Wm0M6twYgIo_zcE0Oj-48" value="customer" style="ellipse;whiteSpace=wrap;html=1;" vertex="1" parent="1">
          <mxGeometry x="55" y="595.4" width="50" height="30" as="geometry" />
        </mxCell>
        <mxCell id="q-Wm0M6twYgIo_zcE0Oj-53" value="" style="endArrow=none;html=1;rounded=0;exitX=0.7;exitY=-0.013;exitDx=0;exitDy=0;exitPerimeter=0;entryX=0;entryY=1;entryDx=0;entryDy=0;" edge="1" parent="1" source="q-Wm0M6twYgIo_zcE0Oj-48" target="q-Wm0M6twYgIo_zcE0Oj-5">
          <mxGeometry width="50" height="50" relative="1" as="geometry">
            <mxPoint x="430" y="425.4" as="sourcePoint" />
            <mxPoint x="480" y="375.4" as="targetPoint" />
          </mxGeometry>
        </mxCell>
        <mxCell id="q-Wm0M6twYgIo_zcE0Oj-54" value="&lt;u&gt;ID&lt;/u&gt;" style="ellipse;whiteSpace=wrap;html=1;" vertex="1" parent="1">
          <mxGeometry x="50" y="435.4" width="40" height="20" as="geometry" />
        </mxCell>
        <mxCell id="q-Wm0M6twYgIo_zcE0Oj-55" value="name" style="ellipse;whiteSpace=wrap;html=1;" vertex="1" parent="1">
          <mxGeometry x="20" y="545.4" width="40" height="20" as="geometry" />
        </mxCell>
        <mxCell id="q-Wm0M6twYgIo_zcE0Oj-56" value="phone" style="ellipse;whiteSpace=wrap;html=1;" vertex="1" parent="1">
          <mxGeometry x="140" y="585.4" width="40" height="20" as="geometry" />
        </mxCell>
        <mxCell id="q-Wm0M6twYgIo_zcE0Oj-57" value="password" style="ellipse;whiteSpace=wrap;html=1;" vertex="1" parent="1">
          <mxGeometry x="200" y="580.4" width="70" height="20" as="geometry" />
        </mxCell>
        <mxCell id="q-Wm0M6twYgIo_zcE0Oj-60" value=".........." style="text;html=1;align=center;verticalAlign=middle;whiteSpace=wrap;rounded=0;" vertex="1" parent="1">
          <mxGeometry x="60" y="600.4" width="40" height="30" as="geometry" />
        </mxCell>
        <mxCell id="q-Wm0M6twYgIo_zcE0Oj-61" value="" style="endArrow=none;html=1;rounded=0;exitX=0.582;exitY=0.031;exitDx=0;exitDy=0;exitPerimeter=0;entryX=0.567;entryY=1.044;entryDx=0;entryDy=0;entryPerimeter=0;" edge="1" parent="1" source="q-Wm0M6twYgIo_zcE0Oj-57" target="q-Wm0M6twYgIo_zcE0Oj-5">
          <mxGeometry width="50" height="50" relative="1" as="geometry">
            <mxPoint x="300" y="555.4" as="sourcePoint" />
            <mxPoint x="350" y="505.4" as="targetPoint" />
          </mxGeometry>
        </mxCell>
        <mxCell id="q-Wm0M6twYgIo_zcE0Oj-62" value="" style="endArrow=none;html=1;rounded=0;exitX=0.5;exitY=0;exitDx=0;exitDy=0;entryX=0.206;entryY=0.986;entryDx=0;entryDy=0;entryPerimeter=0;" edge="1" parent="1" source="q-Wm0M6twYgIo_zcE0Oj-56" target="q-Wm0M6twYgIo_zcE0Oj-5">
          <mxGeometry width="50" height="50" relative="1" as="geometry">
            <mxPoint x="300" y="555.4" as="sourcePoint" />
            <mxPoint x="350" y="505.4" as="targetPoint" />
          </mxGeometry>
        </mxCell>
        <mxCell id="q-Wm0M6twYgIo_zcE0Oj-63" value="" style="endArrow=none;html=1;rounded=0;exitX=1;exitY=0;exitDx=0;exitDy=0;entryX=0;entryY=0.75;entryDx=0;entryDy=0;" edge="1" parent="1" source="q-Wm0M6twYgIo_zcE0Oj-55" target="q-Wm0M6twYgIo_zcE0Oj-5">
          <mxGeometry width="50" height="50" relative="1" as="geometry">
            <mxPoint x="300" y="555.4" as="sourcePoint" />
            <mxPoint x="350" y="505.4" as="targetPoint" />
          </mxGeometry>
        </mxCell>
        <mxCell id="q-Wm0M6twYgIo_zcE0Oj-64" value="" style="endArrow=none;html=1;rounded=0;exitX=1;exitY=1;exitDx=0;exitDy=0;entryX=0;entryY=0.5;entryDx=0;entryDy=0;" edge="1" parent="1" source="q-Wm0M6twYgIo_zcE0Oj-54" target="q-Wm0M6twYgIo_zcE0Oj-5">
          <mxGeometry width="50" height="50" relative="1" as="geometry">
            <mxPoint x="300" y="555.4" as="sourcePoint" />
            <mxPoint x="350" y="505.4" as="targetPoint" />
          </mxGeometry>
        </mxCell>
        <mxCell id="q-Wm0M6twYgIo_zcE0Oj-67" value="assistance" style="ellipse;whiteSpace=wrap;html=1;" vertex="1" parent="1">
          <mxGeometry x="285" y="565.4" width="80" height="30" as="geometry" />
        </mxCell>
        <mxCell id="q-Wm0M6twYgIo_zcE0Oj-68" value="..............." style="text;html=1;align=center;verticalAlign=middle;whiteSpace=wrap;rounded=0;" vertex="1" parent="1">
          <mxGeometry x="305" y="570.4" width="40" height="30" as="geometry" />
        </mxCell>
        <mxCell id="q-Wm0M6twYgIo_zcE0Oj-69" value="" style="endArrow=none;html=1;rounded=0;exitX=1;exitY=1;exitDx=0;exitDy=0;entryX=0.5;entryY=0;entryDx=0;entryDy=0;" edge="1" parent="1" source="q-Wm0M6twYgIo_zcE0Oj-5" target="q-Wm0M6twYgIo_zcE0Oj-67">
          <mxGeometry width="50" height="50" relative="1" as="geometry">
            <mxPoint x="290" y="510.4" as="sourcePoint" />
            <mxPoint x="340" y="460.4" as="targetPoint" />
          </mxGeometry>
        </mxCell>
        <mxCell id="q-Wm0M6twYgIo_zcE0Oj-70" value="&lt;u&gt;ID&lt;/u&gt;" style="ellipse;whiteSpace=wrap;html=1;" vertex="1" parent="1">
          <mxGeometry x="770" y="415.4" width="40" height="20" as="geometry" />
        </mxCell>
        <mxCell id="q-Wm0M6twYgIo_zcE0Oj-71" value="name" style="ellipse;whiteSpace=wrap;html=1;" vertex="1" parent="1">
          <mxGeometry x="620" y="590.4" width="40" height="20" as="geometry" />
        </mxCell>
        <mxCell id="q-Wm0M6twYgIo_zcE0Oj-72" value="phone" style="ellipse;whiteSpace=wrap;html=1;" vertex="1" parent="1">
          <mxGeometry x="690" y="590.4" width="40" height="20" as="geometry" />
        </mxCell>
        <mxCell id="q-Wm0M6twYgIo_zcE0Oj-73" value="password" style="ellipse;whiteSpace=wrap;html=1;" vertex="1" parent="1">
          <mxGeometry x="750" y="550.4" width="70" height="20" as="geometry" />
        </mxCell>
        <mxCell id="q-Wm0M6twYgIo_zcE0Oj-75" value="customer" style="ellipse;whiteSpace=wrap;html=1;" vertex="1" parent="1">
          <mxGeometry x="530" y="555.4" width="80" height="30" as="geometry" />
        </mxCell>
        <mxCell id="q-Wm0M6twYgIo_zcE0Oj-77" value="............." style="text;html=1;align=center;verticalAlign=middle;whiteSpace=wrap;rounded=0;" vertex="1" parent="1">
          <mxGeometry x="550" y="560.4" width="40" height="30" as="geometry" />
        </mxCell>
        <mxCell id="q-Wm0M6twYgIo_zcE0Oj-78" value="" style="endArrow=none;html=1;rounded=0;entryX=0.5;entryY=0;entryDx=0;entryDy=0;exitX=0;exitY=1;exitDx=0;exitDy=0;" edge="1" parent="1" source="q-Wm0M6twYgIo_zcE0Oj-8" target="q-Wm0M6twYgIo_zcE0Oj-75">
          <mxGeometry width="50" height="50" relative="1" as="geometry">
            <mxPoint x="340" y="435.4" as="sourcePoint" />
            <mxPoint x="390" y="385.4" as="targetPoint" />
          </mxGeometry>
        </mxCell>
        <mxCell id="q-Wm0M6twYgIo_zcE0Oj-79" value="" style="endArrow=none;html=1;rounded=0;entryX=0.5;entryY=0;entryDx=0;entryDy=0;exitX=0.203;exitY=1.058;exitDx=0;exitDy=0;exitPerimeter=0;" edge="1" parent="1" source="q-Wm0M6twYgIo_zcE0Oj-8" target="q-Wm0M6twYgIo_zcE0Oj-71">
          <mxGeometry width="50" height="50" relative="1" as="geometry">
            <mxPoint x="340" y="435.4" as="sourcePoint" />
            <mxPoint x="390" y="385.4" as="targetPoint" />
          </mxGeometry>
        </mxCell>
        <mxCell id="q-Wm0M6twYgIo_zcE0Oj-80" value="" style="endArrow=none;html=1;rounded=0;exitX=0.5;exitY=0;exitDx=0;exitDy=0;entryX=0.625;entryY=1.069;entryDx=0;entryDy=0;entryPerimeter=0;" edge="1" parent="1" source="q-Wm0M6twYgIo_zcE0Oj-72" target="q-Wm0M6twYgIo_zcE0Oj-8">
          <mxGeometry width="50" height="50" relative="1" as="geometry">
            <mxPoint x="340" y="435.4" as="sourcePoint" />
            <mxPoint x="390" y="385.4" as="targetPoint" />
          </mxGeometry>
        </mxCell>
        <mxCell id="q-Wm0M6twYgIo_zcE0Oj-81" value="" style="endArrow=none;html=1;rounded=0;exitX=0.31;exitY=0.058;exitDx=0;exitDy=0;exitPerimeter=0;entryX=1;entryY=1;entryDx=0;entryDy=0;" edge="1" parent="1" source="q-Wm0M6twYgIo_zcE0Oj-73" target="q-Wm0M6twYgIo_zcE0Oj-8">
          <mxGeometry width="50" height="50" relative="1" as="geometry">
            <mxPoint x="650" y="435.4" as="sourcePoint" />
            <mxPoint x="700" y="385.4" as="targetPoint" />
          </mxGeometry>
        </mxCell>
        <mxCell id="q-Wm0M6twYgIo_zcE0Oj-82" value="" style="endArrow=none;html=1;rounded=0;entryX=0;entryY=1;entryDx=0;entryDy=0;exitX=1;exitY=0;exitDx=0;exitDy=0;" edge="1" parent="1" source="q-Wm0M6twYgIo_zcE0Oj-8" target="q-Wm0M6twYgIo_zcE0Oj-70">
          <mxGeometry width="50" height="50" relative="1" as="geometry">
            <mxPoint x="650" y="435.4" as="sourcePoint" />
            <mxPoint x="700" y="385.4" as="targetPoint" />
          </mxGeometry>
        </mxCell>
        <mxCell id="q-Wm0M6twYgIo_zcE0Oj-83" value="password" style="ellipse;whiteSpace=wrap;html=1;" vertex="1" parent="1">
          <mxGeometry x="35" y="105" width="70" height="20" as="geometry" />
        </mxCell>
        <mxCell id="q-Wm0M6twYgIo_zcE0Oj-84" value="username" style="ellipse;whiteSpace=wrap;html=1;" vertex="1" parent="1">
          <mxGeometry x="120" y="75" width="70" height="20" as="geometry" />
        </mxCell>
        <mxCell id="q-Wm0M6twYgIo_zcE0Oj-85" value="&lt;u&gt;ID&lt;/u&gt;" style="ellipse;whiteSpace=wrap;html=1;" vertex="1" parent="1">
          <mxGeometry x="50" y="175" width="30" height="20" as="geometry" />
        </mxCell>
        <mxCell id="q-Wm0M6twYgIo_zcE0Oj-86" value="" style="endArrow=none;html=1;rounded=0;entryX=1;entryY=0.5;entryDx=0;entryDy=0;exitX=0;exitY=0.5;exitDx=0;exitDy=0;" edge="1" parent="1" source="q-Wm0M6twYgIo_zcE0Oj-6" target="q-Wm0M6twYgIo_zcE0Oj-85">
          <mxGeometry width="50" height="50" relative="1" as="geometry">
            <mxPoint x="360" y="400" as="sourcePoint" />
            <mxPoint x="410" y="350" as="targetPoint" />
          </mxGeometry>
        </mxCell>
        <mxCell id="q-Wm0M6twYgIo_zcE0Oj-87" value="" style="endArrow=none;html=1;rounded=0;entryX=1;entryY=1;entryDx=0;entryDy=0;exitX=0;exitY=0;exitDx=0;exitDy=0;" edge="1" parent="1" source="q-Wm0M6twYgIo_zcE0Oj-6" target="q-Wm0M6twYgIo_zcE0Oj-83">
          <mxGeometry width="50" height="50" relative="1" as="geometry">
            <mxPoint x="360" y="400" as="sourcePoint" />
            <mxPoint x="410" y="350" as="targetPoint" />
          </mxGeometry>
        </mxCell>
        <mxCell id="q-Wm0M6twYgIo_zcE0Oj-88" value="" style="endArrow=none;html=1;rounded=0;entryX=0.383;entryY=1.19;entryDx=0;entryDy=0;entryPerimeter=0;exitX=0.25;exitY=0;exitDx=0;exitDy=0;" edge="1" parent="1" source="q-Wm0M6twYgIo_zcE0Oj-6" target="q-Wm0M6twYgIo_zcE0Oj-84">
          <mxGeometry width="50" height="50" relative="1" as="geometry">
            <mxPoint x="360" y="400" as="sourcePoint" />
            <mxPoint x="410" y="350" as="targetPoint" />
          </mxGeometry>
        </mxCell>
        <mxCell id="q-Wm0M6twYgIo_zcE0Oj-90" value="admin" style="ellipse;whiteSpace=wrap;html=1;" vertex="1" parent="1">
          <mxGeometry x="220" y="70" width="70" height="25" as="geometry" />
        </mxCell>
        <mxCell id="q-Wm0M6twYgIo_zcE0Oj-91" value="" style="endArrow=none;html=1;rounded=0;entryX=0.303;entryY=1.09;entryDx=0;entryDy=0;entryPerimeter=0;exitX=0.75;exitY=0;exitDx=0;exitDy=0;" edge="1" parent="1" source="q-Wm0M6twYgIo_zcE0Oj-6" target="q-Wm0M6twYgIo_zcE0Oj-90">
          <mxGeometry width="50" height="50" relative="1" as="geometry">
            <mxPoint x="360" y="400" as="sourcePoint" />
            <mxPoint x="410" y="350" as="targetPoint" />
          </mxGeometry>
        </mxCell>
        <mxCell id="q-Wm0M6twYgIo_zcE0Oj-93" value="..........." style="text;html=1;align=center;verticalAlign=middle;whiteSpace=wrap;rounded=0;" vertex="1" parent="1">
          <mxGeometry x="235" y="70" width="40" height="30" as="geometry" />
        </mxCell>
        <mxCell id="q-Wm0M6twYgIo_zcE0Oj-94" value="&lt;u&gt;ID&lt;/u&gt;" style="ellipse;whiteSpace=wrap;html=1;" vertex="1" parent="1">
          <mxGeometry x="410" y="385" width="40" height="20" as="geometry" />
        </mxCell>
        <mxCell id="q-Wm0M6twYgIo_zcE0Oj-95" value="quantity" style="ellipse;whiteSpace=wrap;html=1;" vertex="1" parent="1">
          <mxGeometry x="460" y="345" width="60" height="20" as="geometry" />
        </mxCell>
        <mxCell id="q-Wm0M6twYgIo_zcE0Oj-96" value="" style="endArrow=none;html=1;rounded=0;exitX=0.338;exitY=0.026;exitDx=0;exitDy=0;entryX=0.5;entryY=1;entryDx=0;entryDy=0;exitPerimeter=0;" edge="1" parent="1" source="q-Wm0M6twYgIo_zcE0Oj-94" target="q-Wm0M6twYgIo_zcE0Oj-7">
          <mxGeometry width="50" height="50" relative="1" as="geometry">
            <mxPoint x="530" y="330" as="sourcePoint" />
            <mxPoint x="580" y="280" as="targetPoint" />
          </mxGeometry>
        </mxCell>
        <mxCell id="q-Wm0M6twYgIo_zcE0Oj-97" value="" style="endArrow=none;html=1;rounded=0;entryX=1;entryY=1;entryDx=0;entryDy=0;exitX=0.228;exitY=0.082;exitDx=0;exitDy=0;exitPerimeter=0;" edge="1" parent="1" source="q-Wm0M6twYgIo_zcE0Oj-95" target="q-Wm0M6twYgIo_zcE0Oj-7">
          <mxGeometry width="50" height="50" relative="1" as="geometry">
            <mxPoint x="530" y="330" as="sourcePoint" />
            <mxPoint x="440" y="330" as="targetPoint" />
          </mxGeometry>
        </mxCell>
        <mxCell id="q-Wm0M6twYgIo_zcE0Oj-98" value="token" style="ellipse;whiteSpace=wrap;html=1;" vertex="1" parent="1">
          <mxGeometry x="10" y="490" width="40" height="25.4" as="geometry" />
        </mxCell>
        <mxCell id="q-Wm0M6twYgIo_zcE0Oj-100" value=".........." style="text;html=1;align=center;verticalAlign=middle;whiteSpace=wrap;rounded=0;" vertex="1" parent="1">
          <mxGeometry x="15" y="490" width="30" height="30.4" as="geometry" />
        </mxCell>
        <mxCell id="q-Wm0M6twYgIo_zcE0Oj-101" value="" style="endArrow=none;html=1;rounded=0;entryX=-0.026;entryY=0.593;entryDx=0;entryDy=0;entryPerimeter=0;exitX=0.993;exitY=0.622;exitDx=0;exitDy=0;exitPerimeter=0;" edge="1" parent="1" source="q-Wm0M6twYgIo_zcE0Oj-98" target="q-Wm0M6twYgIo_zcE0Oj-5">
          <mxGeometry width="50" height="50" relative="1" as="geometry">
            <mxPoint x="10" y="540" as="sourcePoint" />
            <mxPoint x="60" y="490" as="targetPoint" />
          </mxGeometry>
        </mxCell>
        <mxCell id="q-Wm0M6twYgIo_zcE0Oj-105" value="token" style="ellipse;whiteSpace=wrap;html=1;" vertex="1" parent="1">
          <mxGeometry x="300" y="105" width="40" height="25.4" as="geometry" />
        </mxCell>
        <mxCell id="q-Wm0M6twYgIo_zcE0Oj-106" value=".........." style="text;html=1;align=center;verticalAlign=middle;whiteSpace=wrap;rounded=0;" vertex="1" parent="1">
          <mxGeometry x="305" y="105" width="30" height="30.4" as="geometry" />
        </mxCell>
        <mxCell id="q-Wm0M6twYgIo_zcE0Oj-107" value="" style="endArrow=none;html=1;rounded=0;entryX=0;entryY=0.5;entryDx=0;entryDy=0;exitX=1;exitY=0;exitDx=0;exitDy=0;" edge="1" parent="1" source="q-Wm0M6twYgIo_zcE0Oj-6" target="q-Wm0M6twYgIo_zcE0Oj-105">
          <mxGeometry width="50" height="50" relative="1" as="geometry">
            <mxPoint x="200" y="150" as="sourcePoint" />
            <mxPoint x="250" y="100" as="targetPoint" />
          </mxGeometry>
        </mxCell>
        <mxCell id="q-Wm0M6twYgIo_zcE0Oj-114" value="" style="endArrow=none;html=1;rounded=0;" edge="1" parent="1">
          <mxGeometry relative="1" as="geometry">
            <mxPoint x="660" y="440" as="sourcePoint" />
            <mxPoint x="680" y="440" as="targetPoint" />
            <Array as="points">
              <mxPoint x="670" y="440" />
            </Array>
          </mxGeometry>
        </mxCell>
        <mxCell id="q-Wm0M6twYgIo_zcE0Oj-115" value="" style="endArrow=none;html=1;rounded=0;" edge="1" parent="1">
          <mxGeometry relative="1" as="geometry">
            <mxPoint x="660" y="230" as="sourcePoint" />
            <mxPoint x="680" y="230" as="targetPoint" />
            <Array as="points">
              <mxPoint x="670" y="230" />
            </Array>
          </mxGeometry>
        </mxCell>
        <mxCell id="q-Wm0M6twYgIo_zcE0Oj-116" value="" style="endArrow=none;html=1;rounded=0;exitX=0.331;exitY=0.013;exitDx=0;exitDy=0;exitPerimeter=0;entryX=0.5;entryY=0;entryDx=0;entryDy=0;" edge="1" parent="1" source="q-Wm0M6twYgIo_zcE0Oj-5" target="q-Wm0M6twYgIo_zcE0Oj-5">
          <mxGeometry relative="1" as="geometry">
            <mxPoint x="340" y="280" as="sourcePoint" />
            <mxPoint x="500" y="280" as="targetPoint" />
            <Array as="points">
              <mxPoint x="190" y="450" />
            </Array>
          </mxGeometry>
        </mxCell>
        <mxCell id="q-Wm0M6twYgIo_zcE0Oj-117" value="" style="endArrow=none;html=1;rounded=0;exitX=0.409;exitY=1.011;exitDx=0;exitDy=0;exitPerimeter=0;entryX=0.565;entryY=0.996;entryDx=0;entryDy=0;entryPerimeter=0;" edge="1" parent="1" source="q-Wm0M6twYgIo_zcE0Oj-6" target="q-Wm0M6twYgIo_zcE0Oj-6">
          <mxGeometry relative="1" as="geometry">
            <mxPoint x="370" y="280" as="sourcePoint" />
            <mxPoint x="530" y="280" as="targetPoint" />
            <Array as="points">
              <mxPoint x="190" y="230" />
            </Array>
          </mxGeometry>
        </mxCell>
        <mxCell id="q-Wm0M6twYgIo_zcE0Oj-118" value="" style="endArrow=none;html=1;rounded=0;" edge="1" parent="1">
          <mxGeometry relative="1" as="geometry">
            <mxPoint x="270" y="490" as="sourcePoint" />
            <mxPoint x="270" y="510" as="targetPoint" />
            <Array as="points">
              <mxPoint x="270" y="500" />
            </Array>
          </mxGeometry>
        </mxCell>
        <mxCell id="q-Wm0M6twYgIo_zcE0Oj-120" value="" style="endArrow=none;html=1;rounded=0;exitX=1;exitY=0.5;exitDx=0;exitDy=0;entryX=-0.014;entryY=0.636;entryDx=0;entryDy=0;entryPerimeter=0;" edge="1" parent="1" source="q-Wm0M6twYgIo_zcE0Oj-10" target="q-Wm0M6twYgIo_zcE0Oj-119">
          <mxGeometry width="50" height="50" relative="1" as="geometry">
            <mxPoint x="500" y="498" as="sourcePoint" />
            <mxPoint x="618" y="494" as="targetPoint" />
            <Array as="points" />
          </mxGeometry>
        </mxCell>
        <mxCell id="q-Wm0M6twYgIo_zcE0Oj-122" value="" style="endArrow=none;html=1;rounded=0;entryX=-0.019;entryY=0.776;entryDx=0;entryDy=0;entryPerimeter=0;" edge="1" parent="1" source="q-Wm0M6twYgIo_zcE0Oj-119" target="q-Wm0M6twYgIo_zcE0Oj-8">
          <mxGeometry relative="1" as="geometry">
            <mxPoint x="500" y="480" as="sourcePoint" />
            <mxPoint x="660" y="480" as="targetPoint" />
            <Array as="points" />
          </mxGeometry>
        </mxCell>
        <mxCell id="q-Wm0M6twYgIo_zcE0Oj-123" value="" style="endArrow=none;html=1;rounded=0;exitX=-0.017;exitY=0.431;exitDx=0;exitDy=0;exitPerimeter=0;" edge="1" parent="1" source="q-Wm0M6twYgIo_zcE0Oj-8" target="q-Wm0M6twYgIo_zcE0Oj-119">
          <mxGeometry relative="1" as="geometry">
            <mxPoint x="500" y="480" as="sourcePoint" />
            <mxPoint x="660" y="480" as="targetPoint" />
            <Array as="points" />
          </mxGeometry>
        </mxCell>
        <mxCell id="q-Wm0M6twYgIo_zcE0Oj-119" value="" style="ellipse;whiteSpace=wrap;html=1;aspect=fixed;" vertex="1" parent="1">
          <mxGeometry x="590" y="490" width="10" height="10" as="geometry" />
        </mxCell>
        <mxCell id="q-Wm0M6twYgIo_zcE0Oj-125" value="" style="endArrow=none;html=1;rounded=0;exitX=-0.011;exitY=0.324;exitDx=0;exitDy=0;exitPerimeter=0;entryX=-0.008;entryY=0.685;entryDx=0;entryDy=0;entryPerimeter=0;" edge="1" parent="1" source="q-Wm0M6twYgIo_zcE0Oj-23" target="q-Wm0M6twYgIo_zcE0Oj-23">
          <mxGeometry relative="1" as="geometry">
            <mxPoint x="590" y="180" as="sourcePoint" />
            <mxPoint x="670" y="210" as="targetPoint" />
            <Array as="points">
              <mxPoint x="600" y="190" />
            </Array>
          </mxGeometry>
        </mxCell>
        <mxCell id="q-Wm0M6twYgIo_zcE0Oj-126" value="" style="endArrow=none;html=1;rounded=0;entryX=0.146;entryY=0.985;entryDx=0;entryDy=0;entryPerimeter=0;exitX=0;exitY=0.75;exitDx=0;exitDy=0;" edge="1" parent="1" source="q-Wm0M6twYgIo_zcE0Oj-7" target="q-Wm0M6twYgIo_zcE0Oj-7">
          <mxGeometry relative="1" as="geometry">
            <mxPoint x="350" y="330" as="sourcePoint" />
            <mxPoint x="510" y="370" as="targetPoint" />
            <Array as="points">
              <mxPoint x="360" y="350" />
            </Array>
          </mxGeometry>
        </mxCell>
        <mxCell id="q-Wm0M6twYgIo_zcE0Oj-127" value="" style="endArrow=none;html=1;rounded=0;entryX=1;entryY=0.25;entryDx=0;entryDy=0;exitX=0.885;exitY=-0.002;exitDx=0;exitDy=0;exitPerimeter=0;" edge="1" parent="1" source="q-Wm0M6twYgIo_zcE0Oj-7" target="q-Wm0M6twYgIo_zcE0Oj-7">
          <mxGeometry relative="1" as="geometry">
            <mxPoint x="320" y="240" as="sourcePoint" />
            <mxPoint x="480" y="240" as="targetPoint" />
            <Array as="points">
              <mxPoint x="450" y="290" />
            </Array>
          </mxGeometry>
        </mxCell>
        <mxCell id="q-Wm0M6twYgIo_zcE0Oj-132" value="" style="endArrow=none;html=1;rounded=0;exitX=1;exitY=0.75;exitDx=0;exitDy=0;entryX=1;entryY=0.5;entryDx=0;entryDy=0;" edge="1" parent="1" source="q-Wm0M6twYgIo_zcE0Oj-6" target="q-Wm0M6twYgIo_zcE0Oj-6">
          <mxGeometry relative="1" as="geometry">
            <mxPoint x="400" y="240" as="sourcePoint" />
            <mxPoint x="270" y="180" as="targetPoint" />
            <Array as="points">
              <mxPoint x="260" y="200" />
            </Array>
          </mxGeometry>
        </mxCell>
      </root>
    </mxGraphModel>
  </diagram>
</mxfile>
